<?xml version="1.0" encoding="utf-8"?>
<!-- Generator: Adobe Illustrator 22.1.0, SVG Export Plug-In . SVG Version: 6.00 Build 0)  -->
<svg version="1.1" id="Warstwa_2" xmlns="http://www.w3.org/2000/svg" xmlns:xlink="http://www.w3.org/1999/xlink" x="0px" y="0px"
	 viewBox="0 0 156.5 44" style="enable-background:new 0 0 156.5 44;" xml:space="preserve">
<style type="text/css">
	.st0{fill:#703B42;}
	.st1{fill:#375663;}
</style>
<g>
	<path class="st0" d="M19.3,17.7H3.1c-0.9,0-1.6-0.7-1.6-1.6v-13c0-0.9,0.7-1.6,1.6-1.6h19V0h-19C1.4,0,0,1.4,0,3.1v13
		c0,1.7,1.4,3.1,3.1,3.1h16.1c0.9,0,1.6,0.7,1.6,1.6v1.3h1.5v-1.3C22.4,19.2,21,17.7,19.3,17.7z"/>
	<path class="st1" d="M19.3,30.1h-8.1v1.5h8.1c0.9,0,1.6,0.7,1.6,1.6v7.6c0,0.9-0.7,1.6-1.6,1.6H3.2c-0.9,0-1.6-0.7-1.6-1.6V21.8H0
		v19.1C0,42.6,1.4,44,3.2,44h16.1c1.7,0,3.1-1.4,3.1-3.1v-7.6C22.4,31.5,21,30.1,19.3,30.1z"/>
	<g>
		<path class="st1" d="M37.3,11.2l3.2,0.3c0.6,0.1,1.1,0.2,1.3,0.3c0.2,0.1,0.3,0.2,0.4,0.5c0.1,0.3,0.1,0.7,0.1,1.4
			c0,0.5,0,1-0.1,1.3c-0.1,0.3-0.2,0.5-0.5,0.6c-0.3,0.2-0.6,0.3-1,0.3c-0.4,0.1-0.9,0.1-1.6,0.1c-0.5,0-1.1,0-1.9-0.1
			c-0.8,0-1.5-0.1-2.1-0.2l-0.2,0v1.4l0.2,0c0.6,0.1,1.3,0.1,2.1,0.2c0.8,0,1.5,0.1,2.2,0.1c1,0,1.8-0.1,2.4-0.2
			c0.6-0.2,1.1-0.5,1.4-1.1c0.3-0.6,0.5-1.4,0.5-2.5c0-1-0.1-1.6-0.2-2c-0.2-0.5-0.5-0.9-1-1.1c-0.4-0.2-1.1-0.3-1.9-0.4l-3.1-0.3
			c-0.5-0.1-0.8-0.1-1-0.2c-0.2-0.1-0.3-0.2-0.4-0.5c-0.1-0.2-0.1-0.6-0.1-1.2c0-0.5,0-0.9,0.1-1.1c0.1-0.2,0.2-0.4,0.4-0.6
			c0.2-0.1,0.6-0.3,1-0.3c0.8-0.1,2-0.1,3.5,0c0.7,0,1.3,0.1,1.7,0.2l0.2,0V4.5l-0.1,0c-0.4-0.1-1-0.2-1.7-0.2
			c-0.7,0-1.4-0.1-2.1-0.1c-1.1,0-1.9,0.1-2.5,0.3C36,4.7,35.5,5,35.2,5.5c-0.3,0.5-0.5,1.3-0.5,2.3c0,0.7,0.1,1.3,0.2,1.7
			c0.1,0.4,0.4,0.8,0.8,1.1C36,10.9,36.5,11.1,37.3,11.2z"/>
		<rect x="50.9" y="4.4" class="st1" width="1.5" height="12.8"/>
		<polygon class="st1" points="68.3,15.7 61.5,15.7 61.5,11.4 67.5,11.4 67.5,10 61.5,10 61.5,5.8 68.3,5.8 68.3,4.4 60,4.4 
			60,17.2 68.3,17.2 		"/>
		<polygon class="st1" points="86.8,17.2 88.3,17.2 88.3,4.4 86.5,4.4 81.8,14.7 77.2,4.5 77.2,4.4 75.3,4.4 75.3,17.2 76.8,17.2 
			76.8,7.3 81.2,17.2 82.3,17.2 86.8,7.3 		"/>
		<rect x="95.9" y="4.4" class="st1" width="1.5" height="12.8"/>
		<polygon class="st1" points="111.8,1.1 111.8,0.8 110.2,0.8 109.2,3.3 109.2,3.6 110.3,3.6 		"/>
		<polygon class="st1" points="106.5,7.2 113.3,17.1 113.4,17.2 114.8,17.2 114.8,4.4 113.3,4.4 113.3,14.2 106.5,4.4 106.4,4.4 
			105,4.4 105,17.2 106.5,17.2 		"/>
		<path class="st1" d="M128.9,15.5c-0.3,0.2-0.6,0.3-1,0.3c-0.4,0.1-0.9,0.1-1.6,0.1c-0.5,0-1.1,0-1.9-0.1c-0.8,0-1.5-0.1-2.1-0.2
			l-0.2,0v1.4l0.2,0c0.6,0.1,1.3,0.1,2.1,0.2c0.8,0,1.5,0.1,2.2,0.1c1,0,1.8-0.1,2.4-0.2c0.6-0.2,1.1-0.5,1.4-1.1
			c0.3-0.6,0.5-1.4,0.5-2.5c0-1-0.1-1.6-0.2-2c-0.2-0.5-0.5-0.9-1-1.1c-0.4-0.2-1.1-0.3-1.9-0.4l-3.1-0.3c-0.5-0.1-0.8-0.1-1-0.2
			c-0.2-0.1-0.3-0.2-0.4-0.5c-0.1-0.2-0.1-0.6-0.1-1.2c0-0.5,0-0.9,0.1-1.1c0.1-0.2,0.2-0.4,0.4-0.6c0.2-0.1,0.6-0.3,1-0.3
			c0.8-0.1,2-0.1,3.5,0c0.7,0,1.3,0.1,1.7,0.2l0.2,0V4.5l-0.1,0c-0.4-0.1-1-0.2-1.7-0.2c-0.7,0-1.4-0.1-2.1-0.1
			c-1.1,0-1.9,0.1-2.5,0.3c-0.7,0.2-1.2,0.5-1.5,1.1c-0.3,0.5-0.5,1.3-0.5,2.3c0,0.7,0.1,1.3,0.2,1.7c0.1,0.4,0.4,0.8,0.8,1.1
			c0.4,0.3,1,0.5,1.7,0.5l3.2,0.3c0.6,0.1,1.1,0.2,1.3,0.3c0.2,0.1,0.3,0.2,0.4,0.5c0.1,0.3,0.1,0.7,0.1,1.4c0,0.5,0,1-0.1,1.3
			C129.3,15.1,129.2,15.4,128.9,15.5z"/>
		<polygon class="st1" points="139.7,11.4 142.1,11.4 146.4,17.1 146.5,17.2 148.3,17.2 143.3,10.6 148.2,4.4 146.5,4.4 142.1,10 
			139.7,10 139.7,4.4 138.2,4.4 138.2,17.2 139.7,17.2 		"/>
		<rect x="154.9" y="4.4" class="st1" width="1.5" height="12.8"/>
		<path class="st1" d="M39.7,34.1h3.1v4c-0.3,0-0.7,0.1-1.2,0.1c-0.5,0-1,0.1-1.4,0.1c-1.2,0-2.1-0.1-2.6-0.4
			c-0.5-0.2-0.8-0.7-1-1.3c-0.2-0.7-0.3-1.9-0.3-3.5c0-1.7,0.1-3,0.4-3.7c0.2-0.7,0.6-1.1,1.1-1.2c0.6-0.2,1.6-0.2,3.1-0.2
			c0.8,0,1.9,0.1,3.2,0.3l0.2,0V27l-0.1,0c-0.5-0.1-1.1-0.2-1.9-0.2c-2.5-0.2-4.4-0.1-5.4,0.4c-0.8,0.3-1.3,1-1.6,1.9
			c-0.3,0.9-0.4,2.3-0.4,4.2c0,1.9,0.1,3.3,0.4,4.2c0.3,0.9,0.8,1.5,1.6,1.9c0.7,0.3,1.9,0.5,3.4,0.5c0.5,0,1.2,0,1.9-0.1
			c0.7-0.1,1.4-0.2,2-0.2l0.1,0v-6.7h-4.6V34.1z"/>
		<path class="st1" d="M59.5,34.6c0,1.2-0.1,2-0.2,2.5c-0.1,0.4-0.4,0.8-0.8,0.9c-0.5,0.2-1.2,0.3-2.3,0.3s-1.9-0.1-2.3-0.3
			c-0.4-0.2-0.7-0.5-0.8-0.9c-0.1-0.5-0.2-1.3-0.2-2.5v-7.8h-1.5V34c0,1.6,0.1,2.8,0.3,3.6c0.2,0.8,0.7,1.3,1.4,1.7
			c0.7,0.3,1.7,0.5,3.2,0.5c1.5,0,2.5-0.2,3.2-0.5c0.7-0.3,1.1-0.9,1.4-1.7c0.2-0.8,0.3-2,0.3-3.6v-7.2h-1.5V34.6z"/>
		<polygon class="st1" points="67.5,28.3 71.5,28.3 71.5,39.6 73.1,39.6 73.1,28.3 77.1,28.3 77.1,26.8 67.5,26.8 		"/>
		<path class="st1" d="M92,27.1c-0.7-0.3-1.9-0.5-3.5-0.5c-1.7,0-2.8,0.2-3.5,0.5c-0.7,0.3-1.2,0.9-1.4,1.8
			c-0.2,0.8-0.3,2.3-0.3,4.3s0.1,3.4,0.3,4.3c0.2,0.9,0.7,1.5,1.4,1.8c0.7,0.3,1.9,0.5,3.5,0.5c1.7,0,2.8-0.2,3.5-0.5
			c0.7-0.3,1.2-0.9,1.4-1.8c0.2-0.8,0.3-2.3,0.3-4.3s-0.1-3.4-0.3-4.3C93.2,28.1,92.7,27.5,92,27.1z M92.1,33.2
			c0,1.8-0.1,3.1-0.2,3.7c-0.1,0.6-0.4,1-0.8,1.1c-0.5,0.2-1.3,0.3-2.6,0.3c-1.3,0-2.2-0.1-2.6-0.3c-0.4-0.2-0.7-0.5-0.8-1.1
			c-0.1-0.7-0.2-1.9-0.2-3.7c0-1.8,0.1-3.1,0.2-3.7c0.1-0.6,0.4-1,0.8-1.1c0.5-0.2,1.3-0.3,2.6-0.3s2.2,0.1,2.6,0.3
			c0.4,0.2,0.7,0.5,0.8,1.1C92.1,30.2,92.1,31.4,92.1,33.2z"/>
		<polygon class="st1" points="112,37.2 108.8,26.8 107.3,26.8 104.1,37.3 101.2,26.9 101.2,26.8 99.6,26.8 103.2,39.5 103.3,39.6 
			104.8,39.6 108,29.4 111.2,39.6 112.8,39.6 116.4,26.8 114.9,26.8 		"/>
		<path class="st1" d="M130.4,32.8c-0.4-0.2-1.1-0.3-1.9-0.4l-3.1-0.3c-0.5-0.1-0.8-0.1-1-0.2c-0.2-0.1-0.3-0.2-0.4-0.5
			c-0.1-0.2-0.1-0.6-0.1-1.2c0-0.5,0-0.9,0.1-1.1c0.1-0.2,0.2-0.4,0.4-0.6c0.2-0.1,0.6-0.3,1-0.3c0.8-0.1,2-0.1,3.5,0
			c0.7,0,1.2,0.1,1.7,0.2l0.2,0V27l-0.1,0c-0.4-0.1-1-0.2-1.7-0.2c-0.7,0-1.4-0.1-2.1-0.1c-1.1,0-1.9,0.1-2.5,0.3
			c-0.7,0.2-1.2,0.5-1.5,1.1c-0.3,0.5-0.5,1.3-0.5,2.3c0,0.7,0.1,1.3,0.2,1.7c0.1,0.4,0.4,0.8,0.8,1.1c0.4,0.3,1,0.5,1.7,0.5
			l3.2,0.3c0.6,0.1,1.1,0.2,1.3,0.3c0.2,0.1,0.3,0.2,0.4,0.5c0.1,0.3,0.1,0.7,0.1,1.4c0,0.5,0,1-0.1,1.3c-0.1,0.3-0.2,0.5-0.5,0.6
			c-0.3,0.2-0.6,0.3-1,0.3c-0.4,0.1-0.9,0.1-1.6,0.1c-0.5,0-1.1,0-1.9-0.1c-0.8,0-1.5-0.1-2.1-0.2l-0.2,0v1.4l0.2,0
			c0.6,0.1,1.3,0.1,2.1,0.2h0c0.8,0,1.6,0.1,2.2,0.1c1,0,1.8-0.1,2.4-0.2c0.6-0.2,1.1-0.5,1.4-1.1c0.3-0.6,0.5-1.4,0.5-2.5
			c0-1-0.1-1.6-0.2-2C131.2,33.4,130.8,33,130.4,32.8z"/>
		<polygon class="st1" points="148.5,26.8 146.8,26.8 142.3,32.4 140,32.4 140,26.8 138.5,26.8 138.5,39.6 140,39.6 140,33.8 
			142.3,33.8 146.7,39.5 146.8,39.6 148.6,39.6 143.6,33.1 		"/>
		<rect x="154.9" y="26.8" class="st1" width="1.5" height="12.8"/>
	</g>
</g>
</svg>
